<?xml version="1.0" encoding="utf-8"?>
<!-- Generator: Adobe Illustrator 19.0.0, SVG Export Plug-In . SVG Version: 6.00 Build 0)  -->
<svg version="1.1" id="Layer_1" xmlns="http://www.w3.org/2000/svg" xmlns:xlink="http://www.w3.org/1999/xlink" x="0px" y="0px"
	 viewBox="0 0 500 500" style="enable-background:new 0 0 500 500;" xml:space="preserve">
<style type="text/css">
	.st0{fill:#E9E9E9;}
	.st1{fill:#FFFFFF;}
	.st2{fill:#BD081C;}
</style>
<rect id="XMLID_3_" class="st0" width="500" height="500"/>
<g id="XMLID_1_">
	<path id="XMLID_2_" class="st1" d="M425.7,250.2c0,96.6-78.4,175-175,175s-175-78.4-175-175s78.4-175,175-175
		S425.7,153.5,425.7,250.2"/>
	<g id="XMLID_4_">
		<path id="XMLID_5_" class="st2" d="M250.5,94.6c-85.9,0-155.6,69.7-155.6,155.6c0,65.9,41,122.2,98.9,144.9
			c-1.4-12.3-2.6-31.2,0.5-44.6c2.8-12.1,18.2-77.3,18.2-77.3s-4.7-9.3-4.7-23.1c0-21.6,12.5-37.8,28.2-37.8
			c13.3,0,19.7,10,19.7,21.9c0,13.3-8.5,33.3-12.9,51.8c-3.7,15.5,7.8,28.1,23,28.1c27.7,0,48.9-29.2,48.9-71.2
			c0-37.3-26.8-63.3-65-63.3c-44.3,0-70.3,33.2-70.3,67.5c0,13.4,5.2,27.7,11.6,35.5c1.3,1.5,1.5,2.9,1.1,4.5
			c-1.2,4.9-3.8,15.5-4.3,17.6c-0.7,2.8-2.3,3.5-5.2,2.1c-19.4-9-31.6-37.5-31.6-60.3c0-49.1,35.7-94.2,102.8-94.2
			c54,0,95.9,38.5,95.9,89.9c0,53.6-33.8,96.8-80.7,96.8c-15.8,0-30.6-8.2-35.7-17.9c0,0-7.8,29.7-9.7,37
			c-3.5,13.5-13,30.5-19.3,40.8c14.6,4.5,30,6.9,46.1,6.9c85.9,0,155.6-69.7,155.6-155.6C406,164.2,336.4,94.6,250.5,94.6z"/>
	</g>
</g>
</svg>
